{"title":"Geordie Shore Big Birthday Battle S01E05 1080P WEB-DL AAC2 0 H 2","uid":14842494,"size":1620238189,"categoryP":"video","categoryS":"hd___tv_shows","magnet":"?xt=urn:btih:397917b178992ed66acef1ad4d2974773374d8cc&amp;dn=Geordie+Shore+Big+Birthday+Battle+S01E05+1080P+WEB-DL+AAC2+0+H+2&amp;tr=udp%3A%2F%2Ftracker.leechers-paradise.org%3A6969&amp;tr=udp%3A%2F%2Fzer0day.ch%3A1337&amp;tr=udp%3A%2F%2Fopen.demonii.com%3A1337&amp;tr=udp%3A%2F%2Ftracker.coppersurfer.tk%3A6969&amp;tr=udp%3A%2F%2Fexodus.desync.com%3A6969","seeders":4,"leechers":1,"uploader":"jmanwf","files":1,"time":1465389486,"description":"Description\r\nScotty T is back.A night of partying at work leaves Charlotte's team buzzing and a huge mistake is made that forces Gary to leave the house. Is it all over for him and Charlotte?!\r\n\r\n\r\n\r\nVideo\r\nID : 2\r\nFormat : AVC\r\nFormat/Info : Advanced Video Codec\r\nFormat profile :   \r\nFormat settings, CABAC : Yes\r\nFormat settings, ReFrames : 4 frames\r\nCodec ID : avc1\r\nCodec ID/Info : Advanced Video Coding\r\nDuration : 42mn 13s\r\nBit rate : 4 986 Kbps\r\nWidth : 1 920 pixels\r\nHeight : 1 080 pixels\r\nDisplay aspect ratio : 16:9\r\nFrame rate mode : Constant\r\nFrame rate : 25.000 fps\r\nColor space : YUV\r\nChroma subsampling : 4:2:0\r\nBit depth : 8 bits\r\nScan type : Progressive\r\nBits/(Pixel*Frame) : 0.096\r\nStream size : 1.47 GiB (97%)\r\nLanguage : English\r\nEncoded date : UTC 2016-06-08 05:27:25\r\nTagged date : UTC 2016-06-08 05:30:21\r\nColor range : Limited\r\nColor primaries : BT.709\r\nTransfer characteristics : BT.709\r\nMatrix coefficients : BT.709\r\n\r\nAudio\r\nID : 1\r\nFormat : AAC\r\nFormat/Info : Advanced Audio Codec\r\nFormat profile : LC\r\nCodec ID : 40\r\nDuration : 42mn 13s\r\nBit rate mode : Variable\r\nBit rate : 126 Kbps\r\nMaximum bit rate : 213 Kbps\r\nChannel(s) : 2 channels\r\nChannel positions : Front: L R\r\nSampling rate : 48.0 KHz\r\nFrame rate : 46.875 fps (1024 spf)\r\nCompression mode : Lossy\r\nStream size : 38.0 MiB (2%)\r\nLanguage : English\r\nDefault : Yes\r\nAlternate group : 1\r\nEncoded date : UTC 2016-06-08 05:27:25\r\nTagged date : UTC 2016-06-08 05:30:21","torrent":{"xt":"urn:btih:397917b178992ed66acef1ad4d2974773374d8cc","amp;dn":"Geordie+Shore+Big+Birthday+Battle+S01E05+1080P+WEB-DL+AAC2+0+H+2","amp;tr":["udp%3A%2F%2Ftracker.leechers-paradise.org%3A6969","udp%3A%2F%2Fzer0day.ch%3A1337","udp%3A%2F%2Fopen.demonii.com%3A1337","udp%3A%2F%2Ftracker.coppersurfer.tk%3A6969","udp%3A%2F%2Fexodus.desync.com%3A6969"],"infoHash":"397917b178992ed66acef1ad4d2974773374d8cc","infoHashBuffer":{"type":"Buffer","data":[57,121,23,177,120,153,46,214,106,206,241,173,77,41,116,119,51,116,216,204]},"announce":[],"urlList":[]}}